<svg viewBox="0 0 512 512" xml:space="preserve" xmlns="http://www.w3.org/2000/svg">
    <!-- Background -->
    <rect x="0" y="0" width="512" height="512" fill="#121212"/>
    
    <!-- Center the content in the square viewport -->
    <g transform="translate(-43.625, 160.975) scale(1.5)">
        <!-- D&D Beyond's D&D -->
        <path fill="#E40712" d="m178.5 38c0-0.6 0.1-1.6 0.3-3.3s1.3-6.7 5.7-9.5c-0.2 0-0.5-0.1-0.7-0.1-0.6 0-2.4-0.1-4.9 0.8 1-1.5 4.7-4 6.1-4.7 0.1-0.1 0.3-0.2 0.4-0.2-1.6-5.1-5-9.3-9.8-11.8-3-1.6-6.1-2.4-10.3-2.5h-8.4c-6.7 0-9.8-0.1-12.2-0.6-2-0.5-3.8-1.6-3.8-1.6l-0.5-0.3 0.1 0.6c0 0.2 0.5 4.7 5.9 8.7 1 0.8 1.8 1.5 1.8 4.1v24.2c0 2.6-0.5 3.3-1.7 4-1.3 0.8-4 2.3-4 2.4l-0.9 0.5h21.9c6.1 0 10-1 14.1-3.8 0.8-0.5 1.5-1.1 2.1-1.6-0.4-3.1 0.1-5.9 0.5-7.5 0-0.1-1.1 0.9-1.7 2.2zm-14 0.5h-4.7v-21.6h4.7c6.2 0 9.7 3.9 9.7 10.8s-3.5 10.8-9.7 10.8zm60.7 5.4c0.4-0.8 0.6-1.8 0.6-2.8s-0.3-2-0.7-2.8l1.2 0.2c0.8 0.1 2.3 1.1 2.3 2.6 0 1.8-1.8 2.6-3.4 2.8zm23.2 1c-4.2 2.8-8 3.8-14.1 3.8h-0.2c1-1.2 1.5-2.8 1.5-4.4 0-2.3-1.1-4.4-2.9-5.8h2.6c6.2 0 9.7-3.9 9.7-10.8s-3.5-10.8-9.7-10.8h-4.7v2.7c-0.7-0.1-1.3-0.2-2-0.2-1.1 0-2.4 0.2-2.7 0.4 1.3-1.1 2.8-1.6 3.8-1.8-4.4-1-8.5 1.5-9.1 2.2 0.5-1.1 1.5-2.1 2.2-2.8-1.4 0.5-2.7 1.2-3.8 1.9v-1.8c0-2.7-0.7-3.4-1.8-4.1-5.4-3.9-5.9-8.5-5.9-8.7l-0.1-0.6 0.5 0.3s1.8 1.2 3.8 1.6c2.3 0.5 5.5 0.6 12.2 0.6h8.4c4.2 0.2 7.3 0.9 10.3 2.5 6.8 3.5 10.8 10.4 10.8 18.4 0 4.9-1.6 9.7-4.4 13.1-1.1 1.7-2.6 3.1-4.4 4.3zm-21.2-8.3c-1.5 0-3.1 0.3-3.1 0.3-0.3-0.3-2.3-1.8-3.2-2 1.6 1.7 1.1 3.5 0.7 4.1-0.3 0.5-0.9 0.8-1.4 0.8-0.4 0-0.8-0.1-1.2-0.4v-9.8c0.4-0.5 0.8-1.1 1.3-1.6 1.1-1.3 2.9-2.1 4.7-2.1 1.1 0 2.2 0.3 2.9 0.9l0.6 0.4 0.5-0.5c0.3-0.3 1-0.6 1.7-0.9v11.5c-1.1-0.5-2.2-0.7-3.5-0.7zm-2-13.6c-3.7-0.5-9.4 2-12.3 5.6 0.6-2.4 3.2-6.3 6.4-8.1 0 0-1.6 2-0.9 2.3 1 0.5 3.6-3.6 7-3.7 0 0-2.5 1.2-2 2.1 0.4 0.6 2.1-0.8 5-0.8 3.6 0 6.8 2.2 8.3 3.9-2.5-0.7-7.2 0.5-8.6 1.7-2.1-1.6-6.2-1.4-8.5 1.3-2.9 3.3-4.7 7.2-5.2 8.4-1-0.8-1.9-1.5-2.5-2-0.5-0.4-1-0.6-1.5-0.8 2.7-3.8 8.3-9.6 14.8-9.9zm-39-11.2c-0.4-4.7 1.8-7.3 2.8-8.4 2.2-2.3 5.2-3.6 9.7-3.4 7 0.4 10.4 5.2 10.4 10.3 0 2.7-1.4 6.3-3.4 8.6l-0.4-0.4c-1.3-1.2-3.2-2.7-4.4-4.5 2.4-3.5 1.4-9-2.9-9-2.7 0-4.9 2.8-4 6.2-0.4 1.5-0.6 3.5-0.3 5-3.1-1.6-4.1-3.7-4.7-5.6-0.8 1.6-1.3 3.8-0.7 5.9 0 0.2-1.8-1.4-2.1-4.7zm1.8 8.5c-0.3 1.1-4.4 2.3-6.4 4.3 3-0.6 4.4-0.1 4.9 1.1 0.3 0.9-0.1 2.1-0.3 3.5 1-1.1 4.4-3.4 6.9-3.9-0.6-0.2-2.1-0.5-2.7-0.5 1.8-2.1 5.8-2.8 8-2.3-1.4-0.1-4.2 0.7-5.3 1.6 1 0.2 1.9 0.4 2.7 0.7-1.3 0.5-3 2.1-3.6 3.8 1.7-1.2 5.2-0.9 5.8 1.6 0.4 1.7-0.8 3.2-1.4 3.5 0.5 0.1 1.7 0 2.2-0.3-0.2 0.7-1.2 1.9-1.9 2.1 1.8 0 4.4-1.2 5.1-2.9 0 0-1.1 0.4-1.6-0.1s0.2-2.7 0.2-2.7-0.7 0.9-1.3 0.4c-0.6-0.6 0.2-2.6 0.5-3-0.6-0.2-2.2-0.4-2.9-0.3 2-0.7 6.5-1.1 7-0.2 0.4 0.7-0.6 2.1-0.6 2.1 0.8-0.1 3.1 0 3.9 0.9 0.8 1 0.3 2.3 0.3 2.3 1.8-0.9 3.4-3.7 3-6.5-0.2 0.6-1 1.5-1.8 1.7 0.1-0.9-0.6-1.4-1.2-1.6 0.3-1.7-0.4-3.9-2.9-6.3-2.1-2.1-6.1-4.9-5.9-8.6-0.6 0.8-1.1 3.1-0.5 4.4 1.7 2 5.4 4.2 6.3 7.6-1.6-4-9.4-7.1-9.1-12.6-1 1-1.6 4.9-0.8 6.9 1.5 0.9 2.8 2.4 3 3.8-1.4-3.2-7.1-3.8-8.7-7.6-0.4 1.4-0.2 3.1 0.6 4.2 0 0-1.4-0.5-4.4-0.4 1 0.4 3.1 2.2 2.9 3.3zm16.2 4.6c-1.7 0-2.2-1.3-2.6-2.7 2 0.8 2.6 2.7 2.6 2.7zm21.8 26.1c1.2 1.1 4.1 1.9 5.6 1.2-0.9 1.6-5.1 3.8-9 2.8-3.7-1-5.4-4.5-5.4-6.8-1.8 1.8-1.3 4.6 0 5.8-1.4-0.4-3.6-1.9-4-4.6-0.3-2.3 1-5-1.4-7.1-1.4-1.3-3.7-3.1-5.1-4.2-3-2.3-1.9-4.1-2.5-5.3-0.5-1-1.8-1.5-2.5-2.4-0.8-0.9-0.7-2.2-0.3-2.9-0.1 1 0.6 1.8 1.6 2.2 1.1 0.4 2 0.1 3 0.6 1.1 0.7 0.6 2.4 1.4 3.1 0.7 0.5 2.6-0.2 4.1 1.1 1.6 1.3 5.1 4.2 6.6 5.4 2.7 2.2 5.5-0.3 4.6-2.9 2.8 1.6 3.1 6.2 0.8 7.8 2.2 0.5 6.1-0.5 6.1-3.6 0-1.9-1.8-3.3-3-3.5 4.5-0.4 8.4 2.7 8.4 6.7-0.2 4-4.3 7.2-9 6.6zm-14.9-8.2l0.3 0.3c-2.4 4.9-6.9 11.2-15.5 11.2-3.1 0-5.9-1.1-7.9-2.6-0.7-0.5-1.3-1.1-1.8-1.8-0.3-0.4-0.6-0.7-0.9-1.1-0.4-0.5-0.7-0.5-0.9-0.2-0.4 0.6 0.3 2.5 0.3 2.5-6.8-6.4-3.3-15.8-3.2-16.2 0.4-1.2 0-1.4-0.4-1.2-0.6 0.2-1.3 1.2-1.3 1.2 0.5-5.7 5.8-9.2 5.8-9.2l0.1 0.1c0.6 0.9-0.3 2-0.4 5.6 1-1.4 4.9-4.1 7.1-4.9-0.7 0.9-1.3 2.2-1.3 4.1 0 0 1.6-1.8 3.6-1.8 0.5 0 1 0.1 1.4 0.3-7.6 7.4-4.4 16.6 2 16.6 3.6 0 7.2-4 8.7-6.7 1.1 1.1 3 2.7 4.3 3.8z"></path>
        
        <!-- D&D Beyond's N (translated) -->
        <path fill="#FFFFFF" transform="translate(-193, 0)" d="m302.7 66.6h24.5l-4.6 5.2v53.2h-13.3c-2.5-7.9-28-28.1-30.3-34.7h-0.2v29.6l4.6 5.1h-24.3l4.5-5.2v-48l-4.6-5.3h19.7c1.8 5.9 24.8 22.8 28.2 31.8h0.2v-26.5l-4.4-5.2z"></path>
        
        <!-- D&D Beyond's E (translated) -->
        <polygon fill="#FFFFFF" transform="translate(75, 0)" points="124.8 111.7 116 124.9 116.1 124.9 65.3 124.9 69.9 119.8 69.9 71.7 65.3 66.6 111.2 66.5 111.2 66.6 120 79.7 87.3 79.7 87.3 89 110.5 89 101.7 102.2 101.7 102.3 87.3 102.2 87.3 111.8"></polygon>
        
        <!-- Comic Sans A -->
        <g transform="translate(210, 66) scale(0.81)" id="svgGroup" stroke-linecap="round" fill-rule="evenodd" font-size="9pt" stroke="#000" stroke-width="0.25mm" fill="#000" style="stroke:#ffffff;stroke-width:0.25mm;fill:#ffffff"><path d="M 30.615 49.17 L 17.627 51.856 A 117.102 117.102 0 0 1 16.19 55.423 Q 14.484 59.483 11.856 65.114 A 546.949 546.949 0 0 1 9.277 70.557 A 6.623 6.623 0 0 1 8.221 71.969 A 4.354 4.354 0 0 1 5.029 73.291 A 4.963 4.963 0 0 1 1.732 72.047 A 6.42 6.42 0 0 1 1.538 71.875 A 4.567 4.567 0 0 1 0.003 68.555 A 5.605 5.605 0 0 1 0 68.36 A 5.421 5.421 0 0 1 0.259 67.019 Q 1.382 63.114 7.373 50.537 A 5.113 5.113 0 0 1 6.559 48.067 A 6.33 6.33 0 0 1 6.543 47.608 A 4.824 4.824 0 0 1 7.148 45.154 Q 8.176 43.37 10.956 42.623 A 11.954 11.954 0 0 1 11.328 42.53 Q 16.895 32.08 25.391 18.506 Q 36.963 0 39.795 0 Q 43.652 0 45.068 5.371 L 48.145 21.778 L 55.42 55.713 L 58.203 63.428 A 62.352 62.352 0 0 1 58.755 65.032 Q 59.474 67.227 59.595 68.309 A 3.568 3.568 0 0 1 59.619 68.702 A 4.774 4.774 0 0 1 59.166 70.794 A 4.772 4.772 0 0 1 58.105 72.217 A 5.321 5.321 0 0 1 56.482 73.279 A 4.827 4.827 0 0 1 54.639 73.633 Q 50.146 73.633 46.826 62.11 A 55.822 55.822 0 0 1 46.152 59.5 Q 45.194 55.447 43.95 48.426 A 462.815 462.815 0 0 1 43.652 46.729 Q 38.672 47.412 30.615 49.17 Z M 41.357 36.67 L 37.402 17.823 L 23.438 40.332 A 117.219 117.219 0 0 1 26.773 39.536 Q 32.349 38.282 41.357 36.67 Z" vector-effect="non-scaling-stroke"/></g>

        <!-- Comic Sans R -->
        <g transform="translate(280, 66) scale(0.78)" id="svgGroup" stroke-linecap="round" fill-rule="evenodd" font-size="9pt" stroke="#000" stroke-width="0.25mm" fill="#000" style="stroke:#ffffff;stroke-width:0.25mm;fill:#ffffff"><path d="M 9.863 52.511 L 10.254 62.082 L 10.498 71.701 A 5.462 5.462 0 0 1 10.192 73.559 A 4.808 4.808 0 0 1 9.106 75.29 A 4.63 4.63 0 0 1 5.746 76.729 A 6.025 6.025 0 0 1 5.615 76.73 A 5.017 5.017 0 0 1 3.747 76.392 A 4.608 4.608 0 0 1 2.124 75.29 A 4.907 4.907 0 0 1 0.738 71.967 A 6.435 6.435 0 0 1 0.732 71.701 Q 0.732 68.747 0.518 63.576 A 529.119 529.119 0 0 0 0.366 60.202 A 522.557 522.557 0 0 1 0.206 56.617 Q 0 51.596 0 48.703 A 58.302 58.302 0 0 1 0.061 46.182 Q 0.187 43.299 0.572 39.248 A 271.505 271.505 0 0 1 0.977 35.324 A 270.449 270.449 0 0 0 1.404 31.158 Q 1.781 27.149 1.899 24.321 A 56.277 56.277 0 0 0 1.953 21.994 A 37.493 37.493 0 0 0 1.924 20.599 Q 1.837 18.283 1.489 14.621 Q 1.025 9.738 1.025 7.248 A 8.359 8.359 0 0 1 1.573 4.193 A 7.763 7.763 0 0 1 2.588 2.365 A 5.788 5.788 0 0 1 4.263 0.769 Q 5.728 -0.127 7.715 0.021 L 19.482 0.949 A 41.005 41.005 0 0 1 24.753 1.936 Q 27.466 2.642 29.72 3.7 A 23.263 23.263 0 0 1 30.762 4.22 Q 50.537 14.718 50.537 29.855 A 15.608 15.608 0 0 1 46.825 39.93 A 23.282 23.282 0 0 1 43.799 42.99 A 33.02 33.02 0 0 1 36.416 47.666 A 43.5 43.5 0 0 1 30.273 49.972 A 111.313 111.313 0 0 1 39.808 55.682 Q 48.044 61.232 52.979 67.16 A 6.044 6.044 0 0 1 53.846 68.564 A 4.771 4.771 0 0 1 54.248 70.48 A 4.911 4.911 0 0 1 52.782 74.021 A 6.231 6.231 0 0 1 52.759 74.044 A 5.187 5.187 0 0 1 51.25 75.131 A 4.644 4.644 0 0 1 49.268 75.558 Q 47.412 75.558 45.801 73.996 A 88.833 88.833 0 0 0 26.475 59.339 A 76.601 76.601 0 0 0 9.863 52.511 Z M 18.164 11.007 L 10.937 10.421 L 11.426 16.33 A 101.854 101.854 0 0 1 11.606 18.459 Q 11.687 19.56 11.727 20.504 A 40.833 40.833 0 0 1 11.768 22.238 A 62.149 62.149 0 0 1 11.682 25.363 Q 11.608 26.82 11.471 28.468 A 136.684 136.684 0 0 1 11.133 31.955 L 10.107 41.671 A 28.138 28.138 0 0 1 10.497 41.674 Q 11.135 41.683 12.179 41.719 A 169.063 169.063 0 0 1 12.231 41.72 A 138.256 138.256 0 0 0 12.907 41.742 Q 13.855 41.769 14.404 41.769 A 75.087 75.087 0 0 0 20.914 41.506 Q 28.6 40.835 33.057 38.449 A 21.008 21.008 0 0 0 37.393 35.234 A 24.125 24.125 0 0 0 38.135 34.494 A 16.955 16.955 0 0 0 39.266 33.179 Q 40.723 31.283 40.723 29.855 Q 40.723 24.162 35.294 19.121 A 30.214 30.214 0 0 0 33.008 17.209 A 33.175 33.175 0 0 0 25.757 12.973 A 27.077 27.077 0 0 0 18.164 11.007 Z" vector-effect="non-scaling-stroke"/></g>
    </g>
</svg>